<svg xmlns="http://www.w3.org/2000/svg" xmlns:xlink="http://www.w3.org/1999/xlink" id="Layer_1" x="0px" y="0px" viewBox="0 0 100 125" style="enable-background:new 0 0 100 125;" xml:space="preserve"><path d="M84.8,36.6c-7.5,0-12.9-19.1-12.9-29.1c0-0.8-0.7-1.5-1.5-1.5H61c-0.8,0-1.5,0.7-1.5,1.5v0v7H40.5v-7C40.5,6.7,39.8,6,39,6  h-9.4c-0.8,0-1.5,0.7-1.5,1.5v0c0,10-5.5,29.1-12.9,29.1c-0.8,0-1.5,0.7-1.5,1.5v54.4c0,0.8,0.7,1.5,1.5,1.5h69.7  c0.8,0,1.5-0.7,1.5-1.5V38.1C86.4,37.3,85.7,36.6,84.8,36.6z M83.3,79.1H60V77h23.3V79.1z M43,84.2V71.9h14v12.3H43z M16.7,54.9H40  v3.6c0,0.8,0.7,1.5,1.5,1.5h7v8.9h-7c-0.8,0-1.5,0.7-1.5,1.5c0,0,0,0,0,0V74H16.7V54.9z M16.7,49.8H40v2.1H16.7V49.8z M57,44.7V57  H43V44.7H57z M83.3,51.9H60v-2.1h23.3L83.3,51.9z M16.7,77H40v2.1H16.7V77z M60,74v-3.6c0-0.8-0.7-1.5-1.5-1.5l0,0h-7V60h7  c0.8,0,1.5-0.7,1.5-1.5v-3.6h23.3V74H60z M62.6,9h6.4c0.5,9.2,5,28.5,14.4,30.4v7.3H60v-3.6c0-0.8-0.7-1.5-1.5-1.5h-7V31  c6.3-0.8,11-6.1,11-12.5L62.6,9z M59.6,17.5v1c0,5.3-4.3,9.5-9.5,9.5s-9.5-4.3-9.5-9.5v-1H59.6z M31.1,9h6.4v9.5  c0,6.3,4.7,11.7,11,12.5v10.7h-7c-0.8,0-1.5,0.7-1.5,1.5v3.6H16.7v-7.3C26.1,37.6,30.6,18.3,31.1,9z M16.7,82.1H40v3.6  c0,0.8,0.7,1.5,1.5,1.5h7V91H16.7V82.1z M51.5,91v-3.8h7c0.8,0,1.5-0.7,1.5-1.5v-3.6h23.3V91H51.5z"></path></svg>