<svg xmlns="http://www.w3.org/2000/svg" xmlns:xlink="http://www.w3.org/1999/xlink" id="Layer_1" x="0px" y="0px" viewBox="0 0 500 500" style="enable-background:new 0 0 500 500;" xml:space="preserve"><style type="text/css">	.st0{fill:#FFFFFF;}</style><path class="st0" d="M239.5,101.2c23.7-0.3,42.9-19.4,43.3-43.2c0-23.9-19.4-43.3-43.3-43.3S196.2,34.1,196.2,58  C196.5,81.8,215.7,100.9,239.5,101.2z M239.5,25.6c17.8,0.2,32.2,14.6,32.5,32.5c-0.9,17.9-16.1,31.7-34,30.9  c-16.7-0.8-30.1-14.2-30.9-30.9C207.3,40.2,221.6,25.8,239.5,25.6z"></path><path class="st0" d="M461,382.2c-1.4,0-2.7,0.6-3.8,1.5c0,0-17.7,15.8-87.6,24.7c-1.6-7.4-3.8-14.6-6.6-21.6  c-4.5-9.8-6.5-20.5-5.8-31.3l0,0l32.6-261.8c2.6-5.8,2.1-12.5-1.1-17.9c-2.8-4.9-7.3-8.5-12.7-10.2c-5.4-1.7-11.3-1.1-16.2,1.6  L299,100.4L241.6,112h-30.3c-17.4,0.2-32.8,11.2-38.7,27.5l-31.3,95.2l-0.5,2c-0.4,0.6-0.6,1.2-0.7,1.9l-1.7,9l-8,41.6  c0,0.4,0,0.8,0,1.2l-5.3,28.2L100.4,389c-3.1,8.6-1.7,18.3,3.9,25.6h-54c-8.6-0.5-16,6.2-16.5,14.8c0,0.5,0,0.9,0,1.4  c0,18.5,55.1,27.4,92.1,27.4h259.4c45.1,0,91.8-44.4,91.8-59.2c0.6-8.6-5.9-16.1-14.5-16.8C462.1,382.2,461.6,382.2,461,382.2z   M360,415.4c0.7,4.2,1.2,8.8,1.6,13.6c0,0.7,0,1.3,0,1.9c0,4.7,0,9.7,0,14.8v1.3h-64c0,0,0-0.7,0-1c0.6-4.1,1.4-8,2.3-11.8  c0-0.7,0-1.4,0.6-2.1c1-3.7,2.1-7.3,3.5-10.9c3.9-10.1,9.2-19.6,15.5-28.4c6.8-8.8,11.9-18.8,14.8-29.6c0.1-0.5,0.1-1,0-1.5v-1h11.5  c0.2,10.4,2.5,20.6,6.7,30.1C355.8,398.7,358.4,406.9,360,415.4z M255.7,414.6L255.7,414.6c3.6-4.6,5.6-10.3,5.5-16.2v-75.7  c-0.2-6.3-2.5-12.4-6.5-17.3L230.6,274l-11.9-16.7c-4.3-5.3,2.1,3,0,0l26.4-67.6l27.5,19l5.8,4.3l60.4,29.6L324,359.7l0,0  c-2.7,9.7-7.2,18.7-13.4,26.6c-6.1,8.6-11.2,17.8-15.3,27.5C282.9,414.4,269.9,414.6,255.7,414.6z M145.5,268.9c1.4,2.1,3,4,4.7,5.8  l0,0l0,0l16.7,17.3l-24.9-5.7L145.5,268.9z M212.5,414.6h-65.1c1.8-2.5,3.3-5.3,4.2-8.2l33.9-96.1l21.4,22.2v65.9  C207,404.2,209,410,212.5,414.6z M217.8,398.4v-68.1c0-1.4-0.5-2.7-1.5-3.8l-23.7-24.2l31.1-19.6l22.2,29.2c2.7,3,4.2,6.8,4.4,10.8  v75.7c-0.6,9-8.4,15.7-17.3,15.1C224.7,413,218.3,406.5,217.8,398.4L217.8,398.4z M254.2,165.9c0.1-0.4,0.1-0.7,0-1.1l0,0l0.9-0.4  l10.1-4.1l28.8,23c0.3,0.2,0.6,0.4,1,0.6l47.4,24.3l-2.9,23.3l-56.9-28l-3.6-2.8l-30-21.1L254.2,165.9z M344.4,196.7l-43.5-22.2  l-23.7-18.9l32.8-13.4l6.4-3.1l37.8-21.1L344.4,196.7z M347.1,349.8H336l29.6-238.5l11.6-6.5L347.1,349.8z M302.1,110.6  c0.5-0.1,1.1-0.3,1.6-0.5l61.7-33.6c1.4-0.8,3-1.3,4.7-1.3c1.1,0,2.1,0.2,3.1,0.5c2.7,0.8,5,2.7,6.4,5.2c1.5,2.6,1.5,5.9,0,8.5l0,0  c-1.3,2.2-3.3,3.8-5.6,4.6l-15.7,9.2l0,0l-47.8,26.7l0,0l-3.7,1.9L252,154l-3.1,1.3h-2.6c-1,0.1-2.1,0.1-3.1,0h-0.9  c-1.3-0.2-2.5-0.4-3.8-0.8H238c-1.4-0.4-2.7-1.1-3.9-1.9c-3-2.4-4.8-5.9-5.1-9.7c-0.1-1.2-0.1-2.4,0-3.6c0-13.1,8.1-15.6,12.3-16.1  h1.7L302.1,110.6z M182.9,143.2c4.3-12,15.6-20.1,28.4-20.3h10.6c-0.5,0.8-1,1.8-1.4,2.7v0.4c-0.7,1.7-1.3,3.4-1.7,5.2l-0.1,1.7  c-0.4,2.1-0.6,4.3-0.7,6.5c0,1.9,0.2,3.7,0.5,5.5c0.7,6.5,4.1,12.5,9.4,16.4c1.4,1,2.8,1.8,4.4,2.5l1.4,0.6l3.1,1l1.5,0.4l3.3,0.5h1  l0,0l-35.1,89.6c-0.1,0.7-0.1,1.3,0,2v1.1c0,1.2,0.4,2.3,1.1,3.3l9,11.8l-32,20.2l-27.2-27.2c-1.5-1.5-2.9-3.2-4-5.1  c0,0,0-0.8-0.5-1.1c-0.9-1.5-1.6-3.1-2.1-4.7c0-0.7,0-1.5-0.4-2.1c-0.4-1.4-0.7-2.8-0.8-4.2c0-1,0-1.9,0-2.9c-0.1-1.3-0.1-2.6,0-3.8  c0-0.4,0-1,0-2.1L182.9,143.2z M120.4,413.8c-8.6-3.2-13-12.7-9.9-21.3l25.1-71.1l4.6-24.7L176,305l-34.6,98.3  c-2.2,6.7-8.4,11.3-15.5,11.4C124.1,414.7,122.2,414.4,120.4,413.8z M44.9,430.8c-0.3-2.7,1.6-5.1,4.3-5.4c0.4,0,0.7,0,1.1,0h205.4  c12.6,0,24.5,0,35.6,0l0,0c-1,3.2-1.8,6.4-2.4,9.7c0,0.9-0.4,1.9-0.6,2.8c-0.5,2.5-0.9,5.1-1.3,7.8c0,0.6,0,1.1,0,1.7H125.9  C82.4,447.1,47.3,436,44.9,430.8z M385.1,447.1h-12.5c0-0.6,0-1.3,0-1.9c0-3.9,0-7.7,0-11.3v-1.8c0-4.1-0.5-7.9-1-11.7  c0-0.4,0-0.8,0-1.3c61.5-8,84.5-21.1,91.1-26c2.4,0.5,4.1,2.7,3.8,5.2c-1,7.4-39.7,48.7-81.1,48.7H385.1z"></path></svg>